HIERARCHY
ROOT Hips
{
	OFFSET 0.000000 71.427986 0.000000
	CHANNELS 6 Xposition Yposition Zposition Xrotation Yrotation Zrotation
	JOINT Pelvis
	{
		OFFSET 0.000000 0.000000 0.000000
		CHANNELS 3 Xrotation Yrotation Zrotation
		JOINT LeftUpLeg
		{
			OFFSET 6.797100 -2.508499 -1.318700
			CHANNELS 3 Xrotation Yrotation Zrotation
			JOINT LeftLeg
			{
				OFFSET 0.069008 -29.241863 0.690200
				CHANNELS 3 Xrotation Yrotation Zrotation
				JOINT LeftFoot
				{
					OFFSET -0.069008 -29.568123 -0.266800
					CHANNELS 3 Xrotation Yrotation Zrotation
					JOINT LeftToeBase
					{
						OFFSET 3.145500 -8.631000 16.059900
						CHANNELS 3 Xrotation Yrotation Zrotation
						End Site
						{
							OFFSET 0.000000 18.501587 0.000000
						}
					}
				}
			}
			JOINT Left_ShortSleeve
			{
				OFFSET 0.265923 -10.480953 1.153800
				CHANNELS 3 Xrotation Yrotation Zrotation
				End Site
				{
					OFFSET 1.725763 19.823879 0.000000
				}
			}
		}
		JOINT RightUpLeg
		{
			OFFSET -6.797100 -2.508499 -1.318700
			CHANNELS 3 Xrotation Yrotation Zrotation
			JOINT RightLeg
			{
				OFFSET -0.082453 -29.241932 0.688000
				CHANNELS 3 Xrotation Yrotation Zrotation
				JOINT RightFoot
				{
					OFFSET 0.082453 -29.568058 -0.264600
					CHANNELS 3 Xrotation Yrotation Zrotation
					JOINT RightToeBase
					{
						OFFSET -3.115300 -8.682800 16.113400
						CHANNELS 3 Xrotation Yrotation Zrotation
						End Site
						{
							OFFSET 0.000000 18.567114 0.000000
						}
					}
				}
			}
			JOINT Right_ShortSleeve
			{
				OFFSET -0.265923 -10.480953 1.153800
				CHANNELS 3 Xrotation Yrotation Zrotation
				End Site
				{
					OFFSET -1.725766 19.823910 0.000000
				}
			}
		}
	}
	JOINT Spine
	{
		OFFSET 0.000000 13.368103 0.470500
		CHANNELS 3 Xrotation Yrotation Zrotation
		JOINT Spine1
		{
			OFFSET 0.147000 13.837402 0.538800
			CHANNELS 3 Xrotation Yrotation Zrotation
			JOINT Spine2
			{
				OFFSET 0.168000 16.242897 -1.435500
				CHANNELS 3 Xrotation Yrotation Zrotation
				JOINT Neck
				{
					OFFSET 0.217200 18.631500 -1.679100
					CHANNELS 3 Xrotation Yrotation Zrotation
					JOINT Head
					{
						OFFSET 0.000000 6.599396 1.385900
						CHANNELS 3 Xrotation Yrotation Zrotation
						JOINT Hat
						{
							OFFSET -0.532200 27.220596 -10.096100
							CHANNELS 3 Xrotation Yrotation Zrotation
							End Site
							{
								OFFSET 0.000000 22.029861 0.000000
							}
						}
						JOINT HairD
						{
							OFFSET -10.777400 17.437393 -1.325900
							CHANNELS 3 Xrotation Yrotation Zrotation
							JOINT HairD1
							{
								OFFSET -3.290299 -11.051193 1.062200
								CHANNELS 3 Xrotation Yrotation Zrotation
								End Site
								{
									OFFSET 0.000000 11.579437 0.000000
								}
							}
						}
						JOINT HairB
						{
							OFFSET -10.777400 17.437393 1.467900
							CHANNELS 3 Xrotation Yrotation Zrotation
							JOINT HairB1
							{
								OFFSET -1.561200 -12.956299 3.590200
								CHANNELS 3 Xrotation Yrotation Zrotation
								End Site
								{
									OFFSET 0.000000 13.534866 0.000000
								}
							}
						}
						JOINT HairA
						{
							OFFSET 9.713100 17.437393 1.467900
							CHANNELS 3 Xrotation Yrotation Zrotation
							JOINT HairA1
							{
								OFFSET 1.561200 -12.956299 3.590200
								CHANNELS 3 Xrotation Yrotation Zrotation
								End Site
								{
									OFFSET 0.000000 13.534866 0.000000
								}
							}
						}
						JOINT HairC
						{
							OFFSET 9.713100 17.437393 -1.325900
							CHANNELS 3 Xrotation Yrotation Zrotation
							JOINT HairC1
							{
								OFFSET 3.290300 -11.051193 1.062200
								CHANNELS 3 Xrotation Yrotation Zrotation
								End Site
								{
									OFFSET 0.000000 11.579437 0.000000
								}
							}
						}
					}
				}
				JOINT LeftShoulder
				{
					OFFSET 5.101800 15.108002 -2.763700
					CHANNELS 3 Xrotation Yrotation Zrotation
					JOINT LeftArm
					{
						OFFSET 9.825497 2.506317 -1.597400
						CHANNELS 3 Xrotation Yrotation Zrotation
						JOINT LeftForeArm
						{
							OFFSET 21.966244 0.000000 0.000000
							CHANNELS 3 Xrotation Yrotation Zrotation
							JOINT LeftHand
							{
								OFFSET 33.879036 0.000000 0.000000
								CHANNELS 3 Xrotation Yrotation Zrotation
								JOINT LeftHandThumb1
								{
									OFFSET 6.715286 -2.359680 3.363841
									CHANNELS 3 Xrotation Yrotation Zrotation
									JOINT LeftHandThumb2
									{
										OFFSET 2.507072 -1.447464 1.447461
										CHANNELS 3 Xrotation Yrotation Zrotation
										JOINT LeftHandThumb3
										{
											OFFSET 2.898338 -1.673355 1.673357
											CHANNELS 3 Xrotation Yrotation Zrotation
											End Site
											{
												OFFSET -0.295959 3.727692 -0.131651
											}
										}
									}
								}
								JOINT LeftHandIndex1
								{
									OFFSET 14.190811 -0.254547 3.840278
									CHANNELS 3 Xrotation Yrotation Zrotation
									JOINT LeftHandIndex2
									{
										OFFSET 3.551727 0.000000 -0.000000
										CHANNELS 3 Xrotation Yrotation Zrotation
										JOINT LeftHandIndex3
										{
											OFFSET 2.894196 0.000000 0.000000
											CHANNELS 3 Xrotation Yrotation Zrotation
											End Site
											{
												OFFSET -1.000603 2.690872 0.366626
											}
										}
									}
								}
								JOINT LeftHandMiddle1
								{
									OFFSET 13.776489 0.000000 0.000000
									CHANNELS 3 Xrotation Yrotation Zrotation
									JOINT LeftHandMiddle2
									{
										OFFSET 3.438232 0.000000 0.000000
										CHANNELS 3 Xrotation Yrotation Zrotation
										JOINT LeftHandMiddle3
										{
											OFFSET 3.691551 0.000000 0.000000
											CHANNELS 3 Xrotation Yrotation Zrotation
											End Site
											{
												OFFSET -1.082298 3.499527 0.457670
											}
										}
									}
								}
								JOINT LeftHandRing1
								{
									OFFSET 13.966164 -0.268127 -3.067488
									CHANNELS 3 Xrotation Yrotation Zrotation
									JOINT LeftHandRing2
									{
										OFFSET 3.162567 0.000000 0.000000
										CHANNELS 3 Xrotation Yrotation Zrotation
										JOINT LeftHandRing3
										{
											OFFSET 3.324348 0.000000 0.000000
											CHANNELS 3 Xrotation Yrotation Zrotation
											End Site
											{
												OFFSET -0.861900 3.184998 0.405154
											}
										}
									}
								}
								JOINT LeftHandPinky1
								{
									OFFSET 13.131393 -0.168503 -5.746925
									CHANNELS 3 Xrotation Yrotation Zrotation
									JOINT LeftHandPinky2
									{
										OFFSET 2.849182 0.000000 0.000000
										CHANNELS 3 Xrotation Yrotation Zrotation
										JOINT LeftHandPinky3
										{
											OFFSET 2.805038 0.000000 0.000000
											CHANNELS 3 Xrotation Yrotation Zrotation
											End Site
											{
												OFFSET -0.882500 2.642609 0.325652
											}
										}
									}
								}
							}
							JOINT Left_Sleeve
							{
								OFFSET 6.592125 -0.646545 0.805568
								CHANNELS 3 Xrotation Yrotation Zrotation
								End Site
								{
									OFFSET -0.000179 20.275787 -0.000000
								}
							}
						}
					}
				}
				JOINT RightShoulder
				{
					OFFSET -5.731700 15.108002 -2.763700
					CHANNELS 3 Xrotation Yrotation Zrotation
					JOINT RightArm
					{
						OFFSET -9.825497 2.506317 -1.597400
						CHANNELS 3 Xrotation Yrotation Zrotation
						JOINT RightForeArm
						{
							OFFSET -21.966242 0.000000 0.000000
							CHANNELS 3 Xrotation Yrotation Zrotation
							JOINT RightHand
							{
								OFFSET -33.879032 0.000000 0.000000
								CHANNELS 3 Xrotation Yrotation Zrotation
								JOINT RightHandThumb1
								{
									OFFSET -6.715286 -2.359680 3.363841
									CHANNELS 3 Xrotation Yrotation Zrotation
									JOINT RightHandThumb2
									{
										OFFSET -2.507072 -1.447464 1.447461
										CHANNELS 3 Xrotation Yrotation Zrotation
										JOINT RightHandThumb3
										{
											OFFSET -2.898338 -1.673355 1.673357
											CHANNELS 3 Xrotation Yrotation Zrotation
											End Site
											{
												OFFSET 0.295959 3.727692 -0.131651
											}
										}
									}
								}
								JOINT RightHandIndex1
								{
									OFFSET -14.190811 -0.254547 3.840278
									CHANNELS 3 Xrotation Yrotation Zrotation
									JOINT RightHandIndex2
									{
										OFFSET -3.551727 0.000000 -0.000000
										CHANNELS 3 Xrotation Yrotation Zrotation
										JOINT RightHandIndex3
										{
											OFFSET -2.894196 0.000000 0.000000
											CHANNELS 3 Xrotation Yrotation Zrotation
											End Site
											{
												OFFSET 1.000603 2.690872 0.366626
											}
										}
									}
								}
								JOINT RightHandMiddle1
								{
									OFFSET -13.776489 0.000000 0.000000
									CHANNELS 3 Xrotation Yrotation Zrotation
									JOINT RightHandMiddle2
									{
										OFFSET -3.438232 0.000000 0.000000
										CHANNELS 3 Xrotation Yrotation Zrotation
										JOINT RightHandMiddle3
										{
											OFFSET -3.691551 0.000000 0.000000
											CHANNELS 3 Xrotation Yrotation Zrotation
											End Site
											{
												OFFSET 1.082298 3.499527 0.457670
											}
										}
									}
								}
								JOINT RightHandRing1
								{
									OFFSET -13.966164 -0.268127 -3.067488
									CHANNELS 3 Xrotation Yrotation Zrotation
									JOINT RightHandRing2
									{
										OFFSET -3.162567 0.000000 0.000000
										CHANNELS 3 Xrotation Yrotation Zrotation
										JOINT RightHandRing3
										{
											OFFSET -3.324348 0.000000 0.000000
											CHANNELS 3 Xrotation Yrotation Zrotation
											End Site
											{
												OFFSET 0.861900 3.184998 0.405154
											}
										}
									}
								}
								JOINT RightHandPinky1
								{
									OFFSET -13.131393 -0.168503 -5.746925
									CHANNELS 3 Xrotation Yrotation Zrotation
									JOINT RightHandPinky2
									{
										OFFSET -2.849182 0.000000 0.000000
										CHANNELS 3 Xrotation Yrotation Zrotation
										JOINT RightHandPinky3
										{
											OFFSET -2.805038 0.000000 0.000000
											CHANNELS 3 Xrotation Yrotation Zrotation
											End Site
											{
												OFFSET 0.882500 2.642609 0.325652
											}
										}
									}
								}
							}
							JOINT Right_Sleeve
							{
								OFFSET -6.592125 -0.646545 0.805568
								CHANNELS 3 Xrotation Yrotation Zrotation
								End Site
								{
									OFFSET 0.000179 20.275787 -0.000000
								}
							}
						}
					}
				}
				JOINT Bind_Right_JacketString
				{
					OFFSET -3.534800 11.969597 7.200700
					CHANNELS 3 Xrotation Yrotation Zrotation
					JOINT Bind_Right_JacketString1
					{
						OFFSET -0.319900 -6.102600 2.794100
						CHANNELS 3 Xrotation Yrotation Zrotation
						End Site
						{
							OFFSET 0.000000 6.719452 0.000000
						}
					}
				}
				JOINT Bind_Left_JacketString
				{
					OFFSET 2.904800 11.969597 7.200700
					CHANNELS 3 Xrotation Yrotation Zrotation
					JOINT Bind_Left_JacketString1
					{
						OFFSET 0.364800 -5.904503 3.186800
						CHANNELS 3 Xrotation Yrotation Zrotation
						End Site
						{
							OFFSET 0.000000 6.719513 0.000000
						}
					}
				}
				JOINT HairE
				{
					OFFSET 5.915200 17.612701 -11.592200
					CHANNELS 3 Xrotation Yrotation Zrotation
					JOINT HairE1
					{
						OFFSET 0.289200 -7.171898 -1.284500
						CHANNELS 3 Xrotation Yrotation Zrotation
						End Site
						{
							OFFSET 0.000000 7.291756 0.000000
						}
					}
				}
				JOINT HairF
				{
					OFFSET -0.864800 17.612701 -11.592200
					CHANNELS 3 Xrotation Yrotation Zrotation
					JOINT HairF1
					{
						OFFSET 0.000000 -14.087097 -2.127501
						CHANNELS 3 Xrotation Yrotation Zrotation
						End Site
						{
							OFFSET 0.000000 14.246841 0.000000
						}
					}
				}
				JOINT HairG
				{
					OFFSET -8.087700 17.612701 -11.592200
					CHANNELS 3 Xrotation Yrotation Zrotation
					JOINT HairG1
					{
						OFFSET -0.293600 -6.081398 -0.910100
						CHANNELS 3 Xrotation Yrotation Zrotation
						End Site
						{
							OFFSET 0.000000 6.156120 0.000000
						}
					}
				}
			}
		}
	}
	JOINT Pouch
	{
		OFFSET 0.000000 4.394501 10.847300
		CHANNELS 3 Xrotation Yrotation Zrotation
		End Site
		{
			OFFSET 0.000000 21.880577 0.000000
		}
	}
	JOINT Bag
	{
		OFFSET -13.229000 4.813004 -0.593300
		CHANNELS 3 Xrotation Yrotation Zrotation
		End Site
		{
			OFFSET 0.000000 21.880577 0.000000
		}
	}
	JOINT OccupyGuyFacialAnim_Joint
	{
		OFFSET 1.000000 -70.206398 -1.655000
		CHANNELS 3 Xrotation Yrotation Zrotation
		End Site
		{
			OFFSET 0.000000 21.880577 0.000000
		}
	}
}
MOTION
Frames: 4
Frame Time: 0.033333
170.860397 69.518089 -53.738270 -175.939048 3.563960 184.396106 -0.000000 0.000000 -0.000000 13.559004 -1.277599 -11.070252 7.946863 5.117664 1.686284 -16.135784 3.247712 3.540526 -0.000000 0.000000 -0.000000 0.000001 0.000000 0.000001 -31.327769 4.673931 -6.458208 28.878197 -7.916565 -2.062623 -18.701707 -14.232471 8.465009 -0.000000 0.000001 0.000001 0.000001 -0.000000 -0.000000 10.578962 -9.667089 -2.493486 1.180444 -1.598157 -0.217902 1.192314 -1.591691 -0.189503 0.669955 -2.374120 -1.005290 -14.515750 -3.217616 -5.185799 0.000000 0.000000 -0.000000 0.000000 0.000000 -0.000000 0.000000 0.000000 0.000000 0.000000 0.000000 0.000000 0.000001 0.000000 -0.000000 0.000000 0.000000 0.000000 0.000001 0.000000 -0.000000 0.000000 0.000000 -0.000000 0.000000 0.000000 -0.000000 0.860614 3.300533 -14.339943 -0.847092 -23.438172 -18.637795 0.000007 -128.787752 0.000016 -69.784528 14.399668 11.762279 2.484047 -0.109110 10.704451 4.610112 26.710387 15.767236 -0.000000 -0.000001 0.000002 2.077380 6.786911 -45.457470 9.005933 4.930096 -122.674569 0.000001 0.000000 0.000002 -2.062970 2.715089 -45.511043 9.014946 4.924350 -122.779412 -0.000000 -0.000000 0.000002 2.937300 7.407677 -55.135650 9.021889 4.919900 -122.860268 -0.000001 0.000000 0.000003 -3.585403 3.535352 -59.420959 7.978367 5.451900 -111.353653 0.000000 -0.000001 -0.000001 -0.000000 0.000000 -0.000001 -0.035587 10.443099 19.774132 -12.527490 -25.657269 59.033072 0.000007 6.903404 -0.000009 39.270210 -2.592746 11.954996 -4.701624 0.143026 -6.868437 12.441587 -30.226575 -4.022634 -0.000001 -0.000001 0.000001 0.241995 -3.612236 16.569101 0.721233 -2.491458 32.285085 0.000000 0.000001 -0.000001 0.461165 -4.199433 24.281585 0.722529 -2.493522 32.315005 -0.000000 -0.000001 -0.000001 0.589472 -4.460863 27.865019 0.724831 -2.497163 32.367863 -0.000000 -0.000001 -0.000004 0.647596 -4.567120 29.355129 0.728739 -2.503291 32.457298 -0.000000 -0.000001 0.000004 -0.000002 -0.000000 0.000000 -0.000000 -0.000000 0.000000 0.000001 0.000001 0.000000 -0.000000 -0.000000 0.000000 -0.000000 -0.000000 0.000000 -0.000000 -0.000000 0.000000 0.000001 0.000001 0.000000 -0.000000 -0.000000 0.000000 -0.000000 -0.000000 0.000000 -0.000000 -0.000000 0.000000 0.000001 0.000001 0.000000 -0.000000 0.000000 -0.000000 -0.000000 0.000000 -0.000000 -0.000000 0.000000 -0.000000 
171.171387 69.245827 -56.080021 -176.021734 2.813660 184.680324 0.000000 0.000000 -0.000000 15.361679 -0.916471 -10.888638 8.667719 3.564082 1.624712 -17.409483 3.234139 3.332609 -0.000000 0.000000 0.000000 0.000001 -0.000000 0.000001 -29.889779 4.622001 -6.944968 24.720693 -8.423580 -0.986118 -14.190367 -6.147937 6.136609 0.000001 -0.000000 0.000000 0.000001 0.000000 -0.000000 10.558964 -9.727899 -2.515477 1.271350 -1.605912 -0.143210 1.284054 -1.598791 -0.115384 0.636925 -2.422877 -1.036712 -13.611325 -4.034212 -5.142106 -0.000000 -0.000000 0.000001 -0.000000 -0.000000 0.000001 -0.000000 -0.000000 0.000000 -0.000000 -0.000000 0.000000 -0.000000 0.000002 0.000000 -0.000000 -0.000000 0.000000 -0.000000 0.000002 0.000000 -0.000000 -0.000000 0.000001 -0.000000 -0.000000 0.000001 0.914480 3.797513 -14.858073 3.291005 -22.275084 -20.534848 0.000002 -127.304413 0.000008 -64.439509 12.778604 8.979030 2.484047 -0.109110 10.704453 4.610110 26.710389 15.767244 0.000000 -0.000000 0.000002 2.077381 6.786911 -45.457467 9.005933 4.930095 -122.674569 0.000001 0.000001 -0.000000 -2.062970 2.715089 -45.511043 9.014948 4.924349 -122.779412 -0.000000 0.000001 -0.000003 2.937301 7.407675 -55.135647 9.021888 4.919901 -122.860254 -0.000001 0.000000 0.000003 -3.585402 3.535350 -59.420966 7.978366 5.451900 -111.353653 -0.000001 0.000000 0.000001 0.000000 -0.000001 -0.000000 -0.019477 10.190686 19.875926 -12.898314 -25.945278 59.261829 0.000001 6.091025 0.000001 41.808179 -2.546200 13.577598 -4.701622 0.143028 -6.868436 12.441585 -30.226572 -4.022635 0.000001 -0.000001 0.000001 0.241995 -3.612234 16.569101 0.721230 -2.491457 32.285082 0.000001 -0.000001 -0.000002 0.461168 -4.199433 24.281592 0.722531 -2.493521 32.315005 0.000001 -0.000001 0.000001 0.589472 -4.460862 27.865017 0.724831 -2.497162 32.367863 0.000002 -0.000000 0.000002 0.647600 -4.567120 29.355132 0.728739 -2.503295 32.457301 -0.000000 0.000001 0.000001 -0.000000 -0.000000 0.000001 0.000000 0.000001 -0.000000 0.000001 -0.000001 -0.000000 0.000000 0.000001 -0.000000 0.000000 0.000001 -0.000000 0.000000 0.000001 -0.000000 0.000001 -0.000001 -0.000000 0.000000 0.000001 -0.000000 0.000000 0.000001 -0.000000 0.000000 0.000001 -0.000000 0.000001 -0.000001 -0.000000 0.000000 0.000000 -0.000000 0.000000 0.000000 -0.000000 0.000000 0.000000 -0.000000 
171.539307 68.987740 -58.552998 -175.851075 1.647951 184.489229 -0.000000 -0.000000 0.000000 16.040453 -0.142751 -9.991408 12.345733 1.982333 1.566515 -19.609229 3.164984 3.211221 0.000001 0.000000 -0.000000 0.000001 -0.000000 0.000000 -26.530915 4.517546 -7.320686 19.357683 -9.127718 -0.279639 -3.612235 -1.202373 4.817148 0.000001 0.000000 -0.000000 -0.000002 -0.000000 -0.000001 10.469027 -9.845680 -1.898317 1.417889 -1.639440 -0.028419 1.429740 -1.631837 -0.001483 0.588152 -2.458790 -1.077392 -13.054780 -4.661567 -5.257645 0.000000 0.000001 0.000000 0.000000 0.000001 0.000000 0.000000 0.000001 0.000000 0.000000 0.000001 0.000000 0.000000 -0.000000 0.000000 0.000000 0.000001 0.000000 0.000000 -0.000000 0.000000 0.000000 0.000001 0.000000 0.000000 0.000001 0.000000 0.970335 4.282088 -15.334984 7.291276 -20.693525 -23.388318 -0.000037 -125.571757 -0.000023 -58.479902 10.850536 6.348869 2.484048 -0.109111 10.704456 4.610110 26.710389 15.767242 -0.000001 0.000005 -0.000001 2.077381 6.786911 -45.457470 9.005932 4.930095 -122.674569 0.000002 0.000000 0.000002 -2.062971 2.715088 -45.511043 9.014946 4.924347 -122.779412 0.000001 0.000000 0.000002 2.937299 7.407675 -55.135643 9.021888 4.919900 -122.860268 -0.000002 0.000001 -0.000003 -3.585404 3.535350 -59.420959 7.978364 5.451901 -111.353653 0.000001 -0.000001 0.000004 -0.000000 0.000001 0.000002 -0.003475 9.868991 20.105459 -13.547491 -25.785281 58.998450 0.000005 5.457737 0.000017 44.737835 -2.350226 14.728449 -4.701622 0.143028 -6.868437 12.441588 -30.226572 -4.022634 -0.000001 -0.000001 0.000000 0.241996 -3.612233 16.569100 0.721231 -2.491455 32.285082 0.000001 -0.000002 -0.000000 0.461167 -4.199432 24.281587 0.722532 -2.493523 32.315001 0.000000 0.000001 -0.000001 0.589474 -4.460860 27.865017 0.724831 -2.497166 32.367863 -0.000000 -0.000000 0.000007 0.647599 -4.567118 29.355129 0.728740 -2.503294 32.457298 0.000000 0.000000 -0.000001 -0.000004 -0.000000 -0.000000 0.000000 -0.000000 0.000000 0.000000 0.000001 -0.000000 0.000000 -0.000000 0.000000 0.000000 -0.000000 0.000000 0.000000 -0.000000 0.000000 0.000000 0.000001 -0.000000 0.000000 -0.000000 0.000000 0.000000 -0.000000 0.000000 0.000000 -0.000000 0.000000 0.000000 0.000001 -0.000000 -0.000000 -0.000000 0.000000 -0.000000 -0.000000 0.000000 -0.000000 -0.000000 0.000000 
171.959625 68.830971 -61.176373 -175.680416 0.324419 183.703634 -0.000000 0.000000 -0.000000 16.154837 0.918743 -8.236472 17.173227 0.595747 1.523779 -21.550295 3.115417 3.161024 -0.000001 0.000001 -0.000000 -0.000001 -0.000000 -0.000000 -22.247027 4.211294 -7.238926 13.886068 -8.240230 0.289484 6.697332 -0.188977 4.862558 -0.000001 -0.000000 0.000000 -0.000000 -0.000000 -0.000000 10.285246 -9.741321 -0.815266 1.558188 -1.642030 0.144368 1.567615 -1.634279 0.169681 0.624301 -2.521354 -1.046553 -12.700351 -5.316817 -5.471582 -0.000000 -0.000002 -0.000000 -0.000000 -0.000002 -0.000000 -0.000000 -0.000002 -0.000001 -0.000000 -0.000002 0.000000 -0.000000 -0.000002 0.000000 -0.000000 -0.000002 0.000000 -0.000000 -0.000002 0.000000 -0.000000 -0.000002 -0.000000 -0.000000 -0.000002 -0.000000 1.011527 4.653070 -15.634697 11.226875 -18.913760 -27.180062 0.000009 -123.349637 0.000014 -52.307098 8.477859 4.162734 2.484047 -0.109109 10.704447 4.610110 26.710389 15.767230 0.000000 0.000001 -0.000002 2.077380 6.786911 -45.457467 9.005932 4.930096 -122.674569 0.000001 0.000001 0.000002 -2.062972 2.715088 -45.511043 9.014947 4.924350 -122.779412 -0.000001 -0.000000 0.000001 2.937297 7.407675 -55.135640 9.021888 4.919900 -122.860268 -0.000001 0.000000 -0.000001 -3.585404 3.535351 -59.420959 7.978367 5.451902 -111.353653 -0.000001 0.000001 0.000001 -0.000002 0.000001 0.000001 0.010813 9.557654 20.387029 -14.203594 -25.414582 58.358912 0.000002 5.096310 -0.000009 46.596684 -2.349807 15.014311 -4.701620 0.143028 -6.868437 12.441588 -30.226572 -4.022636 0.000002 0.000000 0.000002 0.241996 -3.612234 16.569103 0.721233 -2.491457 32.285078 0.000002 0.000002 0.000002 0.461168 -4.199432 24.281589 0.722532 -2.493522 32.315005 -0.000000 0.000001 -0.000002 0.589474 -4.460860 27.865017 0.724829 -2.497162 32.367863 0.000001 -0.000002 0.000001 0.647600 -4.567119 29.355132 0.728741 -2.503295 32.457301 -0.000002 0.000001 0.000001 -0.000002 -0.000000 -0.000001 -0.000000 -0.000000 -0.000000 -0.000000 -0.000000 -0.000000 -0.000000 -0.000000 -0.000000 -0.000000 -0.000000 -0.000000 -0.000000 -0.000000 -0.000000 -0.000000 -0.000000 -0.000000 -0.000000 -0.000000 -0.000000 -0.000000 -0.000000 -0.000000 -0.000000 -0.000000 -0.000000 -0.000000 -0.000000 -0.000000 -0.000000 0.000000 -0.000000 -0.000000 0.000000 -0.000000 -0.000000 0.000000 -0.000000 
